<svg viewBox="0 0 300 100" width="300" height="100" xmlns="http://www.w3.org/2000/svg" fill-rule="evenodd" clip-rule="evenodd" stroke-linejoin="round" stroke-miterlimit="2"><path d="M69.132.011C68.938 0 68.738 0 68.545 0 54.428 0 42.63 9.883 39.817 23.05c-3.14-1.673-8.112-2.842-13.085-2.842-7.409 0-13.716 2.183-18.923 6.55C2.603 31.127 0 37.28 0 45.22c0 7.94 2.418 13.549 7.258 18.015 4.839 4.467 11.331 6.699 19.474 6.699s12.015 2.812 12.015 8.436c0 2.912-1.186 5.144-3.556 6.699-2.37 1.555-5.255 2.333-8.66 2.333-7.808 0-11.947-3.308-12.414-9.925H.701C.567 84.623 2.72 90.164 7.157 94.1c4.44 3.937 10.898 5.906 19.375 5.906 7.342 0 13.65-1.886 18.923-5.657 5.273-3.772 7.91-9.098 7.91-15.98 0-7.278-3.672-12.539-11.014-15.781 6.875-3.507 10.412-9.23 10.613-17.17.2-5.096-2.316-11.558-4.156-14.04-.715-.961-1.429-1.98-2.328-3.03C59.456 25.336 69.128 13.792 69.132.01zm-33.59 53.844c-2.402 2.05-5.339 3.076-8.81 3.076-3.67 0-6.726-1.074-9.162-3.224-2.436-2.15-3.653-4.98-3.653-8.487 0-3.838 1.183-6.849 3.553-9.032 2.37-2.184 5.458-3.276 9.262-3.276 3.538 0 6.492 1.191 8.86 3.573 2.37 2.382 3.555 5.294 3.555 8.735 0 3.705-1.201 6.583-3.604 8.635z" fill-rule="nonzero"/><path d="M39.147 45.22c0 3.705-1.201 6.583-3.604 8.635-2.403 2.05-5.34 3.076-8.81 3.076-3.672 0-6.727-1.074-9.163-3.224-2.436-2.15-3.653-4.98-3.653-8.487 0-3.838 1.183-6.849 3.553-9.032 2.37-2.184 5.458-3.276 9.262-3.276 3.538 0 6.492 1.191 8.86 3.573 2.37 2.382 3.555 5.294 3.555 8.735z" fill="#8ceaf2" fill-rule="nonzero"/><path d="M255.378 77.378c1.202.76 2.245.926 3.129.496.885-.43 1.46-1.407 1.726-2.93l4.506-25.26h9.21l-4.505 25.26c-.4 2.317-1.186 4.293-2.354 5.932-1.168 1.636-2.527 2.812-4.08 3.524-1.553.71-3.246 1.026-5.082.942-1.835-.084-3.653-.604-5.458-1.564l2.904-6.403.004.003zm9.915-33.698c0 1.224.442 2.175 1.326 2.854.883.677 1.944 1.017 3.179 1.017 1.569 0 2.97-.472 4.205-1.414 1.235-.942 1.853-2.225 1.853-3.846 0-1.225-.433-2.184-1.301-2.879-.868-.695-1.918-1.043-3.153-1.043a6.77 6.77 0 00-4.23 1.438c-1.25.96-1.877 2.25-1.877 3.87l-.002.003zm12.764 20.894c2.27 1.654 5.024 2.565 8.26 2.73 1.836 0 2.755-.447 2.755-1.34 0-.662-.8-1.06-2.403-1.192-2.57-.099-4.763-.694-6.583-1.786-1.818-1.092-2.728-2.78-2.728-5.062 0-2.15.65-3.937 1.954-5.36a10.559 10.559 0 014.757-3.002c1.868-.577 3.955-.869 6.256-.869 4.105 0 7.293.993 9.563 2.978l-4.857 5.459c-.601-.43-1.487-.785-2.655-1.068-1.168-.282-2.27-.42-3.304-.42-1.602 0-2.403.445-2.403 1.34 0 .662.55 1.008 1.651 1.043 6.708.199 10.064 2.464 10.064 6.8 0 2.217-.659 4.07-1.978 5.559a10.76 10.76 0 01-4.806 3.151c-1.887.611-3.996.918-6.332.918a24.15 24.15 0 01-6.46-.87c-2.102-.58-3.755-1.364-4.956-2.357l4.205-6.65v-.002z" fill-rule="nonzero"/><path d="M117.152 74.777c0 4.036-1.186 7.071-3.555 9.107-2.37 2.036-5.307 3.053-8.81 3.053-3.705 0-6.642-.81-8.812-2.433-2.169-1.621-3.288-3.886-3.355-6.8h4.005c.134 1.787.944 3.143 2.428 4.07 1.486.926 3.413 1.389 5.782 1.389 2.37 0 4.296-.704 5.883-2.109 1.586-1.405 2.378-3.498 2.378-6.277v-4.963a9.178 9.178 0 01-3.93 3.697c-1.686.843-3.445 1.266-5.281 1.266-3.638 0-6.66-1.167-9.062-3.498-2.403-2.334-3.604-5.45-3.604-9.354 0-3.904 1.21-6.957 3.628-9.255 2.421-2.3 5.45-3.432 9.087-3.399 1.902 0 3.696.422 5.382 1.266 1.686.843 2.961 2.043 3.829 3.598l.1-4.467h3.905V74.78l.002-.002zM104.188 53.14c-2.503 0-4.606.818-6.308 2.457-1.702 1.639-2.554 3.796-2.554 6.476s.852 4.848 2.554 6.502 3.805 2.481 6.308 2.481c1.635 0 3.094-.33 4.38-.992 1.284-.662 2.26-1.522 2.928-2.58a11.435 11.435 0 001.453-3.499 8.22 8.22 0 000-3.822c-.3-1.275-.785-2.44-1.453-3.498-.667-1.06-1.635-1.92-2.903-2.581-1.268-.662-2.721-.993-4.356-.993l-.052.049h.003zm37.393 17.122c-1 1.423-2.32 2.5-3.955 3.225a12.547 12.547 0 01-5.158 1.092c-2.736 0-5.057-.686-6.96-2.06-1.901-1.372-2.854-3.4-2.854-6.08 0-2.679.968-4.54 2.904-5.88 1.935-1.338 4.272-1.993 7.008-1.96 3.37 0 6.274.68 8.71 2.036v-1.937c0-2.051-.758-3.54-2.278-4.466-1.52-.927-3.428-1.39-5.731-1.39-2.77 0-5.458.611-8.06 1.835l-.753-3.425c3.137-1.39 6.092-2.084 8.862-2.084 3.638 0 6.541.752 8.71 2.258 2.17 1.507 3.255 3.946 3.255 7.32v15.436h-3.455l-.2-3.871-.049-.049h.004zm-4.129-7.669c-1.55-.38-2.98-.571-4.28-.571-1.803 0-3.33.364-4.582 1.092-1.25.728-1.878 1.87-1.878 3.425 0 1.555.65 2.656 1.954 3.399 1.304.743 2.77 1.116 4.405 1.116 2.17 0 4.08-.644 5.732-1.934 1.653-1.29 2.511-2.962 2.578-5.014-1.068-.628-2.378-1.133-3.929-1.513zm18.28-12.978l.3 3.673c1.469-2.713 4.005-4.07 7.61-4.07 2.169-.066 4.089.547 5.757 1.835l-1.853 3.474a7.445 7.445 0 00-4.305-1.34c-2.036.032-3.756.718-5.157 2.06-1.402 1.34-2.103 3.1-2.103 5.284v13.648h-4.105V49.664h3.805l.05-.05v.001zm41.198-10.223v34.739h-3.855l-.2-4.466c-.969 1.62-2.279 2.854-3.93 3.696-1.65.845-3.428 1.266-5.33 1.266-3.638 0-6.633-1.134-8.987-3.399s-3.529-5.368-3.529-9.305c0-3.937 1.168-7.122 3.504-9.354 2.337-2.232 5.325-3.35 8.962-3.35 1.87 0 3.671.42 5.407 1.265 1.735.845 3.021 2.06 3.856 3.649v-14.69h4.056l.049-.05h-.003zM183.915 52.99c-2.503 0-4.581.785-6.232 2.358-1.653 1.57-2.479 3.747-2.479 6.526 0 2.78.826 4.914 2.479 6.502 1.65 1.588 3.729 2.382 6.232 2.382s4.59-.827 6.258-2.48c1.669-1.655 2.503-3.806 2.503-6.452 0-2.647-.843-4.698-2.527-6.352-1.687-1.655-3.78-2.482-6.283-2.482h.049v-.002zm42.206 17.272c-1.201 1.423-2.77 2.506-4.706 3.251a16.446 16.446 0 01-5.958 1.116c-3.871 0-7.008-1.166-9.411-3.498-2.403-2.333-3.605-5.434-3.605-9.305 0-3.871 1.202-6.75 3.605-9.132 2.403-2.382 5.473-3.573 9.21-3.573 4.006 0 7.185 1.233 9.537 3.697 2.351 2.464 3.295 6.03 2.828 10.695h-21.026c.234 2.217 1.186 3.994 2.855 5.335 1.669 1.341 3.704 2.01 6.107 2.01 1.469 0 2.946-.274 4.43-.819 1.486-.544 2.628-1.299 3.429-2.258l2.754 2.481h-.049zm-2.403-10.126c-.1-2.349-.901-4.16-2.403-5.434-1.502-1.275-3.488-1.91-5.958-1.91-2.236 0-4.172.644-5.807 1.936-1.635 1.29-2.621 3.077-2.955 5.36h17.12v.048h.003zm9.612-10.52h3.755l.2 3.921c2.103-2.845 4.922-4.268 8.462-4.268 3.204 0 5.816 1.017 7.834 3.053s3.028 4.806 3.028 8.313v13.549h-4.105V60.685c0-2.382-.668-4.252-2.003-5.608-1.334-1.357-3.17-2.036-5.506-2.036-2.236.033-4.063.81-5.482 2.333-1.42 1.522-2.127 3.408-2.127 5.658v13.152h-4.056V49.615z" fill-rule="nonzero"/></svg>