<svg viewBox="0 0 1487 500" xmlns="http://www.w3.org/2000/svg" fill-rule="evenodd" clip-rule="evenodd" stroke-linejoin="round" stroke-miterlimit="2"><path d="M342.665.055C341.706 0 340.713 0 339.754 0 269.781 0 211.31 49.417 197.359 115.255c-15.56-8.37-40.208-14.216-64.856-14.216-36.724 0-67.988 10.918-93.794 32.754C12.903 155.629 0 186.397 0 226.098c0 39.701 11.988 67.746 35.974 90.078 23.986 22.332 56.166 33.492 96.529 33.492s59.552 14.06 59.552 42.182c0 14.558-5.878 25.718-17.623 33.493-11.745 7.775-26.049 11.667-42.922 11.667-38.708 0-59.22-16.542-61.536-49.626h-66.5c-.662 35.731 10.014 63.434 32.004 83.119 22 19.685 54.015 29.533 96.032 29.533 36.393 0 67.658-9.429 93.794-28.287 26.137-18.858 39.205-45.49 39.205-79.899 0-36.392-18.196-62.694-54.589-78.906 34.077-17.534 51.612-46.152 52.604-85.853.993-25.475-11.48-57.788-20.6-70.194-3.54-4.808-7.08-9.903-11.536-15.153C294.704 126.68 342.643 68.96 342.665.055zm-166.49 269.218c-11.911 10.256-26.468 15.384-43.672 15.384-18.196 0-33.338-5.37-45.414-16.123-12.076-10.752-18.108-24.901-18.108-42.436 0-19.189 5.867-34.242 17.612-45.16 11.745-10.918 27.052-16.377 45.91-16.377 17.535 0 32.18 5.955 43.914 17.866 11.745 11.91 17.623 26.467 17.623 43.671 0 18.527-5.955 32.919-17.866 43.175z" fill-rule="nonzero"/><path d="M194.04 226.098c0 18.527-5.955 32.919-17.866 43.175-11.91 10.256-26.467 15.384-43.671 15.384-18.196 0-33.338-5.37-45.414-16.123-12.076-10.752-18.108-24.901-18.108-42.436 0-19.189 5.867-34.242 17.612-45.16 11.745-10.918 27.052-16.377 45.91-16.377 17.535 0 32.18 5.955 43.914 17.866 11.745 11.91 17.623 26.467 17.623 43.671z" fill="#8ceaf2" fill-rule="nonzero"/><path d="M1265.828 386.888c5.955 3.804 11.127 4.632 15.505 2.481 4.39-2.15 7.235-7.036 8.558-14.645l22.332-126.305h45.656l-22.332 126.305c-1.985 11.58-5.878 21.46-11.667 29.654-5.79 8.183-12.528 14.061-20.226 17.623-7.698 3.551-16.09 5.128-25.188 4.71-9.098-.42-18.108-3.022-27.052-7.82l14.392-32.014.022.01zm49.14-168.488c0 6.121 2.196 10.874 6.574 14.27 4.378 3.386 9.638 5.085 15.759 5.085 7.775 0 14.722-2.36 20.843-7.07 6.12-4.708 9.186-11.127 9.186-19.232 0-6.12-2.15-10.918-6.451-14.392s-9.506-5.216-15.627-5.216c-7.775 0-14.767 2.393-20.964 7.19-6.198 4.797-9.308 11.249-9.308 19.354l-.011.011zm63.27 104.47c11.248 8.27 24.9 12.825 40.946 13.652 9.099 0 13.653-2.238 13.653-6.705 0-3.308-3.97-5.293-11.91-5.955-12.738-.496-23.611-3.474-32.632-8.933-9.01-5.458-13.52-13.895-13.52-25.31 0-10.751 3.22-19.684 9.682-26.797 6.451-7.113 14.314-12.12 23.578-15.01 9.264-2.889 19.608-4.345 31.011-4.345 20.347 0 36.15 4.963 47.399 14.888l-24.074 27.295c-2.978-2.15-7.367-3.926-13.157-5.338-5.79-1.411-11.249-2.106-16.377-2.106-7.94 0-11.91 2.228-11.91 6.705 0 3.308 2.724 5.04 8.183 5.216 33.25.993 49.88 12.319 49.88 34 0 11.083-3.264 20.347-9.804 27.79-6.54 7.445-14.48 12.694-23.82 15.76-9.353 3.055-19.807 4.588-31.387 4.588-10.918 0-21.593-1.445-32.014-4.346-10.422-2.9-18.616-6.826-24.571-11.789l20.843-33.25v-.01z" fill-rule="nonzero"/><path d="M580.685 373.886c0 20.181-5.878 35.356-17.623 45.535-11.745 10.179-26.302 15.263-43.671 15.263-18.362 0-32.92-4.048-43.672-12.164-10.752-8.106-16.3-19.432-16.63-34h19.85c.662 8.933 4.677 15.715 12.032 20.347 7.367 4.632 16.917 6.947 28.662 6.947 11.745 0 21.296-3.517 29.159-10.542 7.863-7.025 11.789-17.49 11.789-31.386v-24.814c-4.632 8.106-11.128 14.27-19.476 18.484-8.36 4.212-17.082 6.33-26.18 6.33-18.032 0-33.008-5.834-44.918-17.49-11.91-11.669-17.866-27.251-17.866-46.771s6-34.783 17.987-46.274c11.999-11.502 27.008-17.16 45.039-16.994 9.429 0 18.318 2.106 26.677 6.33 8.36 4.213 14.678 10.212 18.98 17.987l.496-22.332h19.354v125.555l.01-.011zM516.425 265.7c-12.407 0-22.829 4.091-31.265 12.285-8.437 8.194-12.66 18.98-12.66 32.379 0 13.399 4.223 24.24 12.66 32.51 8.436 8.272 18.858 12.407 31.264 12.407 8.106 0 15.34-1.654 21.715-4.962 6.363-3.309 11.204-7.61 14.513-12.903 3.308-5.294 5.712-11.128 7.2-17.49 1.49-6.375 1.49-12.738 0-19.113-1.488-6.374-3.892-12.197-7.2-17.49-3.309-5.294-8.106-9.595-14.392-12.903s-13.488-4.963-21.593-4.963l-.254.243h.011zm185.348 85.611c-4.962 7.113-11.502 12.495-19.607 16.123-8.106 3.64-16.63 5.46-25.564 5.46-13.564 0-25.066-3.43-34.496-10.301-9.429-6.86-14.149-16.994-14.149-30.394 0-13.399 4.798-22.706 14.392-29.4 9.595-6.695 21.174-9.97 34.739-9.804 16.707 0 31.099 3.396 43.175 10.178v-9.682c0-10.256-3.761-17.7-11.293-22.332-7.532-4.632-16.994-6.948-28.409-6.948-13.73 0-27.051 3.055-39.954 9.176l-3.728-17.127c15.55-6.948 30.195-10.422 43.925-10.422 18.031 0 32.423 3.761 43.175 11.293 10.752 7.532 16.134 19.73 16.134 36.602v77.175h-17.126l-.993-19.354-.243-.243h.022zm-20.468-38.345c-7.686-1.896-14.766-2.856-21.218-2.856-8.933 0-16.498 1.82-22.707 5.46-6.197 3.638-9.307 9.35-9.307 17.126 0 7.775 3.22 13.278 9.682 16.994 6.463 3.716 13.73 5.58 21.836 5.58 10.752 0 20.226-3.22 28.408-9.671 8.194-6.452 12.451-14.811 12.782-25.067-5.294-3.143-11.79-5.669-19.476-7.566zm90.607-64.889l1.489 18.362c7.279-13.565 19.85-20.347 37.716-20.347 10.752-.33 20.27 2.735 28.54 9.175l-9.186 17.37c-6.451-4.467-13.564-6.705-21.339-6.705-10.09.165-18.615 3.595-25.563 10.3s-10.422 15.505-10.422 26.423v68.242H752.8V248.32h18.859l.253-.254v.011zm204.208-51.115v173.692h-19.112l-.993-22.331c-4.797 8.105-11.292 14.27-19.475 18.483-8.183 4.223-16.995 6.33-26.424 6.33-18.03 0-32.874-5.669-44.542-16.995-11.668-11.325-17.49-26.842-17.49-46.527 0-19.685 5.789-35.61 17.369-46.77 11.579-11.16 26.39-16.752 44.42-16.752 9.264 0 18.197 2.106 26.799 6.33s14.976 10.3 19.112 18.24v-73.447h20.104l.243-.253h-.011zm-64.515 67.988c-12.406 0-22.707 3.926-30.89 11.79-8.193 7.851-12.285 18.736-12.285 32.631 0 13.896 4.092 24.57 12.285 32.511 8.183 7.94 18.484 11.91 30.89 11.91 12.407 0 22.751-4.135 31.022-12.406 8.271-8.271 12.407-19.024 12.407-32.257 0-13.234-4.18-23.49-12.528-31.761-8.36-8.271-18.737-12.407-31.143-12.407h.242v-.01zm209.203 86.361c-5.955 7.113-13.73 12.528-23.324 16.256-9.595 3.727-19.443 5.58-29.533 5.58-19.19 0-34.739-5.834-46.65-17.49-11.91-11.669-17.865-27.174-17.865-46.528 0-19.355 5.955-33.746 17.866-45.657 11.91-11.91 27.129-17.865 45.656-17.865 19.85 0 35.61 6.165 47.266 18.483 11.657 12.318 16.333 30.15 14.017 53.475h-104.215c1.158 11.083 5.878 19.972 14.149 26.677 8.27 6.705 18.361 10.047 30.272 10.047 7.278 0 14.601-1.368 21.957-4.092 7.366-2.724 13.024-6.495 16.994-11.292l13.653 12.406h-.243zm-11.91-50.63c-.496-11.745-4.467-20.799-11.91-27.173-7.444-6.374-17.293-9.55-29.534-9.55-11.083 0-20.677 3.22-28.783 9.682-8.106 6.452-12.991 15.384-14.645 26.799h84.86v.242h.012zm47.641-52.604h18.616l.992 19.608c10.422-14.226 24.394-21.34 41.94-21.34 15.88 0 28.828 5.085 38.83 15.264 10.002 10.179 15.01 24.03 15.01 41.564v67.746h-20.348v-67.492c0-11.91-3.308-21.262-9.925-28.044-6.617-6.783-15.715-10.18-27.294-10.18-11.084.166-20.138 4.048-27.174 11.668-7.036 7.61-10.543 17.039-10.543 28.288v65.76h-20.104V248.077z" fill-rule="nonzero"/></svg>