<svg viewBox="0 0 80 80" xmlns="http://www.w3.org/2000/svg" fill-rule="evenodd" clip-rule="evenodd" stroke-linejoin="round" stroke-miterlimit="2"><path d="M53.444 80c-.22 0-.441-.114-.662-.227-.33-.227-.44-.567-.44-.908v-6.241c0-4.199-2.094-8.17-5.51-10.44-.44-.227-.55-.794-.44-1.248.11-.454.44-.794.991-.908 6.17-.68 10.91-6.014 10.91-12.369v-3.744c0-4.312-2.095-8.17-5.62-10.553-.441-.34-.662-.908-.441-1.362.11-.227.11-.454.11-.794l1.138-5.563c0-.457 4.766 2.757 6.381 3.018.26.044-.558-2.05-2.331-4.803-.654-1.013-1.047-1.494-1.832-2.68-.369-.556-.978-1.092-1.589-1.532-.896-.645-1.793-1.084-1.937-1.084-1.322 0-3.064 2.182-3.064 3.544l-1.505 8.192c0 .34-.11.567-.33.794-.22.227-.551.34-.882.34H33.83c-.33 0-.66-.113-.881-.34a1.245 1.245 0 01-.33-.794l1.422-11.964c0-.68-.6-2.11-1.042-2.563-.44-.454-1.951-.922-2.502-.922-1.322 0-4.065 2.055-4.065 3.417l1.448 12.94c0 .34 0 .567.11.794.22.454 0 1.135-.44 1.362-3.527 2.27-5.62 6.24-5.62 10.553v3.744c0 6.469 4.738 11.802 10.909 12.37.44 0 .881.34.991.907.11.454-.11.908-.44 1.248-3.416 2.27-5.51 6.241-5.51 10.44v6.241c0 .34-.22.68-.44.908-.331.227-.662.227-.993.113C10.468 73.986 0 58.44 0 41.191 0 18.496 17.961 0 40 0s40 18.496 40 41.191c0 17.249-10.578 32.795-26.226 38.695-.11.114-.22.114-.33.114zM40 2.27c-20.826 0-37.796 17.474-37.796 38.92 0 15.773 9.256 29.958 23.36 35.972v-4.539a15.16 15.16 0 014.519-10.78c-6.06-1.816-10.358-7.49-10.358-14.185v-3.744c0-4.766 2.203-9.192 5.95-11.915v-.68l-1.754-13.308c0-2.61 3.906-6.135 6.44-6.135 1.213 0 3.47 1.544 4.24 2.451.882.908 1.592 2.785 1.592 4.033L34.82 28.936h10.69l2.292-10.086c0-2.61 1.86-2.782 4.395-2.782.298 0 2.438.757 3.955 2.962.857 1.247 2.453 2.515 3.304 4 3.756 6.562 5.699 13.895-2.095 6.216l-2.205-1.473-.5 3.092v.681c3.746 2.723 5.95 7.149 5.95 11.915v3.745c0 6.695-4.297 12.482-10.358 14.184 2.865 2.723 4.518 6.581 4.518 10.78v4.54c13.774-5.561 23.03-19.746 23.03-35.519C77.796 19.745 60.826 2.27 40 2.27z" fill-rule="nonzero"/></svg>