<svg viewBox="0 0 100 100" xmlns="http://www.w3.org/2000/svg" fill-rule="evenodd" clip-rule="evenodd" stroke-linejoin="round" stroke-miterlimit="2"><style>@media (prefers-color-scheme:dark){path.bg{fill:#8ceaf2}}</style><path class="bg" fill="transparent" d="M84.935 0A15.015 15.015 0 0199.95 15.016V84.97a14.995 14.995 0 01-14.998 14.998H15a15 15 0 01-15-15V14.965C0 6.7 6.699 0 14.964 0h69.97z"/><path d="M88.144 4.756c-.174-.01-.354-.01-.528-.01-12.69 0-23.294 8.962-25.824 20.902C58.97 24.13 54.5 23.07 50.03 23.07c-6.66 0-12.33 1.98-17.01 5.94C28.34 32.97 26 38.55 26 45.75c0 7.2 2.174 12.286 6.524 16.336 4.35 4.05 10.186 6.074 17.506 6.074s10.8 2.55 10.8 7.65c0 2.64-1.066 4.664-3.196 6.074C55.504 83.294 52.91 84 49.85 84c-7.02 0-10.74-3-11.16-9H26.63c-.12 6.48 1.816 11.504 5.804 15.074 3.99 3.57 9.796 5.356 17.416 5.356 6.6 0 12.27-1.71 17.01-5.13 4.74-3.42 7.11-8.25 7.11-14.49 0-6.6-3.3-11.37-9.9-14.31 6.18-3.18 9.36-8.37 9.54-15.57.18-4.62-2.082-10.48-3.736-12.73-.642-.872-1.284-1.796-2.092-2.748 11.664-2.732 20.358-13.2 20.362-25.696zM57.95 53.58c-2.16 1.86-4.8 2.79-7.92 2.79-3.3 0-6.046-.974-8.236-2.924-2.19-1.95-3.284-4.516-3.284-7.696 0-3.48 1.064-6.21 3.194-8.19 2.13-1.98 4.906-2.97 8.326-2.97 3.18 0 5.836 1.08 7.964 3.24 2.13 2.16 3.196 4.8 3.196 7.92 0 3.36-1.08 5.97-3.24 7.83z" fill-rule="nonzero"/><path d="M61.19 45.75c0 3.36-1.08 5.97-3.24 7.83-2.16 1.86-4.8 2.79-7.92 2.79-3.3 0-6.046-.974-8.236-2.924-2.19-1.95-3.284-4.516-3.284-7.696 0-3.48 1.064-6.21 3.194-8.19 2.13-1.98 4.906-2.97 8.326-2.97 3.18 0 5.836 1.08 7.964 3.24 2.13 2.16 3.196 4.8 3.196 7.92z" fill="#8ceaf2" fill-rule="nonzero"/></svg>