<svg viewBox="0 0 100 100" xmlns="http://www.w3.org/2000/svg" fill-rule="evenodd" clip-rule="evenodd" stroke-linejoin="round" stroke-miterlimit="2"><style>@media (prefers-color-scheme:dark) {path.dot{fill: transparent;}path.g{fill:#8ceaf2;}}</style><path class="dot" fill="#8ceaf2" d="M54.118 45.662c0 3.36-1.08 5.97-3.24 7.83-2.16 1.86-4.8 2.79-7.92 2.79-3.3 0-6.046-.974-8.236-2.924-2.19-1.95-3.284-4.516-3.284-7.696 0-3.48 1.064-6.21 3.194-8.19 2.13-1.98 4.906-2.97 8.326-2.97 3.18 0 5.836 1.08 7.964 3.24 2.13 2.16 3.196 4.8 3.196 7.92z" fill-rule="nonzero"/><path class="g" d="M81.072 4.668c-.174-.01-.354-.01-.528-.01-12.69 0-23.294 8.962-25.824 20.902-2.822-1.518-7.292-2.578-11.762-2.578-6.66 0-12.33 1.98-17.01 5.94-4.68 3.96-7.02 9.54-7.02 16.74 0 7.2 2.174 12.286 6.524 16.336 4.35 4.05 10.186 6.074 17.506 6.074s10.8 2.55 10.8 7.65c0 2.64-1.066 4.664-3.196 6.074-2.13 1.41-4.724 2.116-7.784 2.116-7.02 0-10.74-3-11.16-9h-12.06c-.12 6.48 1.816 11.504 5.804 15.074 3.99 3.57 9.796 5.356 17.416 5.356 6.6 0 12.27-1.71 17.01-5.13 4.74-3.42 7.11-8.25 7.11-14.49 0-6.6-3.3-11.37-9.9-14.31 6.18-3.18 9.36-8.37 9.54-15.57.18-4.62-2.082-10.48-3.736-12.73-.642-.872-1.284-1.796-2.092-2.748 11.664-2.732 20.358-13.2 20.362-25.696zM50.878 53.492c-2.16 1.86-4.8 2.79-7.92 2.79-3.3 0-6.046-.974-8.236-2.924-2.19-1.95-3.284-4.516-3.284-7.696 0-3.48 1.064-6.21 3.194-8.19 2.13-1.98 4.906-2.97 8.326-2.97 3.18 0 5.836 1.08 7.964 3.24 2.13 2.16 3.196 4.8 3.196 7.92 0 3.36-1.08 5.97-3.24 7.83z" fill-rule="nonzero"/></svg>