<svg height="24" viewBox="0 0 24 24" width="24" xmlns="http://www.w3.org/2000/svg" fill-rule="evenodd" clip-rule="evenodd" stroke-linejoin="round" stroke-miterlimit="2"><path d="M11.999.296C5.373.296 0 5.67 0 12.296c0 5.302 3.438 9.8 8.207 11.387.6.11.819-.26.819-.579 0-.284-.01-1.04-.017-2.04-3.337.725-4.042-1.61-4.042-1.61C4.422 18.07 3.635 17.7 3.635 17.7c-1.09-.745.082-.73.082-.73 1.205.085 1.838 1.237 1.838 1.237 1.07 1.833 2.81 1.304 3.493.997.109-.775.418-1.304.762-1.604-2.665-.303-5.467-1.333-5.467-5.931 0-1.31.468-2.381 1.236-3.22-.124-.304-.536-1.524.117-3.176 0 0 1.008-.323 3.3 1.23A11.473 11.473 0 0112 6.1a11.51 11.51 0 013.005.403c2.29-1.553 3.296-1.23 3.296-1.23.655 1.652.243 2.872.12 3.176.769.839 1.233 1.91 1.233 3.22 0 4.61-2.806 5.624-5.479 5.921.431.37.815 1.103.815 2.223 0 1.604-.015 2.898-.015 3.291 0 .321.216.695.825.578 4.765-1.59 8.2-6.085 8.2-11.385 0-6.628-5.373-12-12.001-12" fill="#181717"/></svg>